<?xml version="1.0" encoding="UTF-8"?>
<svg width="40px" height="40px" viewBox="0 0 40 40" version="1.1" xmlns="http://www.w3.org/2000/svg" xmlns:xlink="http://www.w3.org/1999/xlink">
    <!-- Generator: Sketch 63.1 (92452) - https://sketch.com -->
    <title>text icon 2-final</title>
    <desc>Created with Sketch.</desc>
    <g id="text-icon-2-final" stroke="none" stroke-width="1" fill="none" fill-rule="evenodd">
        <path d="M27.8337,9 C28.8757,9 29.8357,9.539 30.3797,10.412 L30.4767,10.579 L30.5307,10.689 L30.5827,10.801 L30.6307,10.913 L36.8527,26.913 C36.9867,27.26 37.0567,27.628 37.0567,28 C37.0567,29.466 36.0007,30.702 34.5827,30.954 L34.4037,30.979 L34.2877,30.99 L34.1717,30.997 L34.0567,31 L32.2017,31 C31.1607,31 30.2007,30.461 29.6567,29.588 L29.5607,29.421 L29.4537,29.199 L29.4057,29.088 L28.9827,28 L24.0527,28 L23.6307,29.087 C23.2297,30.119 22.2977,30.836 21.2207,30.976 L21.0277,30.994 L20.8337,31 L18.8937,30.998 L18.7977,31 L6.9997,31 C5.3437,31 3.9997,29.657 3.9997,28 C3.9997,27.704 4.0437,27.41 4.1297,27.128 L4.2017,26.919 L10.3847,10.919 C10.8087,9.823 11.8287,9.081 12.9887,9.006 L13.1837,9 L17.0847,9.001 L17.1827,9 L21.1067,9.002 L21.2017,9 L25.1067,9.002 L25.2017,9 L27.8337,9 Z" id="outline2" fill-opacity="0.15" fill="#000000"></path>
        <path d="M25.663,21 L26.479,18.901 L27.295,21 L25.663,21 Z M35.921,27.275 L29.698,11.275 L29.623,11.107 L29.538,10.962 C29.151,10.351 28.519,10 27.835,10 L25.202,10 L25.106,10.002 L25.044,10.001 L21.202,10 L21.106,10.002 L21.044,10.001 L17.183,10 L17.097,10.002 L13.184,10 L13.019,10.007 C12.261,10.069 11.596,10.56 11.317,11.279 L5.135,27.279 L5.076,27.454 C5.026,27.632 5,27.815 5,28 C5,29.104 5.895,30 7,30 L18.798,30 L18.886,29.998 L20.835,30 L20.998,29.993 L21.159,29.974 C21.849,29.86 22.439,29.392 22.698,28.725 L23.368,27 L29.667,27 L30.339,28.726 L30.413,28.893 L30.499,29.038 C30.886,29.649 31.517,30 32.202,30 L34.057,30 L34.231,29.991 L34.395,29.967 C35.371,29.78 36.057,28.964 36.057,28 C36.057,27.752 36.011,27.506 35.921,27.275 L35.921,27.275 Z" id="outline1" fill-opacity="0.25" fill="#000000"></path>
        <path d="M9.39910212,11.381729 L12.8866262,9.8289832 C13.3911635,9.60434876 13.9822739,9.83125479 14.2069083,10.335792 C14.2537359,10.4409684 14.2820493,10.5534414 14.2906006,10.6682533 L15.5532063,27.6202855 C15.5845549,28.041179 15.3482756,28.4364393 14.9627052,28.6081063 L11.0717057,30.3404909 C10.5671685,30.5651254 9.97605802,30.3382193 9.75142358,29.8336821 C9.7012837,29.7210661 9.67239836,29.60015 9.66622411,29.4770312 L8.80709384,12.3453601 C8.78639904,11.9326911 9.02163641,11.5497875 9.39910212,11.381729 Z" id="blue" fill="#4C97FF" transform="translate(12.189110, 20.092311) rotate(24.000000) translate(-12.189110, -20.092311) "></path>
        <path d="M13.3986784,11.381729 L16.8862025,9.8289832 C17.3907397,9.60434876 17.9818501,9.83125479 18.2064846,10.335792 C18.2533121,10.4409684 18.2816256,10.5534414 18.2901769,10.6682533 L19.5527826,27.6202855 C19.5841312,28.041179 19.3478518,28.4364393 18.9622815,28.6081063 L15.0712819,30.3404909 C14.5667447,30.5651254 13.9756343,30.3382193 13.7509998,29.8336821 C13.7008599,29.7210661 13.6719746,29.60015 13.6658004,29.4770312 L12.8066701,12.3453601 C12.7859753,11.9326911 13.0212126,11.5497875 13.3986784,11.381729 Z" id="magenta" fill="#CF63CF" transform="translate(16.188686, 20.092311) rotate(24.000000) translate(-16.188686, -20.092311) "></path>
        <path d="M17.437713,11.2890772 L20.9072938,9.74432026 C21.411831,9.51968581 22.0029415,9.74659185 22.2275759,10.2511291 C22.2778591,10.3640669 22.3067648,10.4853494 22.3128273,10.6088265 L23.1543472,27.7483382 C23.1745908,28.1606464 22.939403,28.54302 22.562287,28.7109228 L19.0927062,30.2556797 C18.588169,30.4803142 17.9970585,30.2534082 17.7724241,29.7488709 C17.7221409,29.6359331 17.6932352,29.5146506 17.6871727,29.3911735 L16.8456528,12.2516618 C16.8254092,11.8393536 17.060597,11.45698 17.437713,11.2890772 Z" id="yellow" fill="#FFBF00" transform="translate(20.000000, 20.000000) rotate(24.000000) translate(-20.000000, -20.000000) "></path>
        <path d="M27.8340993,11 C28.2465129,11 28.6166261,11.2531823 28.7661039,11.6375537 L28.7661039,11.6375537 L34.9883261,27.6375537 C35.0332644,27.7531092 35.0563215,27.876014 35.0563215,28 C35.0563215,28.5522847 34.6086062,29 34.0563215,29 L34.0563215,29 L32.2022335,29 C31.7898198,29 31.4197066,28.7468177 31.2702288,28.3624463 L31.2702288,28.3624463 L30.3510321,26 L22.6850321,26 L21.7661039,28.3624463 C21.6166261,28.7468177 21.2465129,29 20.8340993,29 L18.9800112,29 C18.4277265,29 17.9800112,28.5522847 17.9800112,28 C17.9800112,27.876014 18.0030683,27.7531092 18.0480066,27.6375537 L24.2702288,11.6375537 C24.4197066,11.2531823 24.7898198,11 25.2022335,11 Z M26.5180321,16.143 L24.2400321,22 L28.7960321,22 L26.5180321,16.143 Z" id="white" fill="#FFFFFF"></path>
    </g>
</svg>