<svg version="1.1" xmlns="http://www.w3.org/2000/svg" xmlns:xlink="http://www.w3.org/1999/xlink" width="78.67893" height="69.08929" viewBox="0,0,78.67893,69.08929"><g transform="translate(-199.69643,-146.48611)"><g data-paper-data="{&quot;isPaintingLayer&quot;:true}" fill-rule="nonzero" stroke-linejoin="miter" stroke-miterlimit="10" stroke-dasharray="" stroke-dashoffset="0" style="mix-blend-mode: normal"><path d="M205.94643,193.02663c0,-9.00156 7.29721,-16.29877 16.29877,-16.29877c9.00156,0 16.29877,7.29721 16.29877,16.29877c0,9.00156 -7.29721,16.29877 -16.29877,16.29877c-9.00156,0 -16.29877,-7.29721 -16.29877,-16.29877z" fill="#5cc4ff" stroke-opacity="0.22353" stroke="#000000" stroke-width="12.5" stroke-linecap="butt"/><path d="M205.87464,192.95482c0,-9.00156 7.29721,-16.29877 16.29877,-16.29877c9.00156,0 16.29877,7.29721 16.29877,16.29877c0,9.00156 -7.29721,16.29877 -16.29877,16.29877c-9.00156,0 -16.29877,-7.29721 -16.29877,-16.29877z" fill="#5cc4ff" stroke="#5cc4ff" stroke-width="7.5" stroke-linecap="butt"/><path d="M234.28392,165.2239l14.48779,-13.58231" fill="none" stroke-opacity="0.22353" stroke="#000000" stroke-width="8.5" stroke-linecap="round"/><path d="M274.12536,150.73611l-19.92072,19.01523" fill="none" stroke-opacity="0.22353" stroke="#000000" stroke-width="8.5" stroke-linecap="round"/><path d="M249.67722,194.1995l14.48779,-13.58231" fill="none" stroke-opacity="0.22353" stroke="#000000" stroke-width="8.5" stroke-linecap="round"/><path d="M234.22241,165.16239l14.48779,-13.58231" fill="none" stroke="#ffffff" stroke-width="3" stroke-linecap="round"/><path d="M254.14313,169.68983l19.92072,-19.01523" fill="none" stroke="#ffffff" stroke-width="3" stroke-linecap="round"/><path d="M249.61571,194.13799l14.48779,-13.58231" fill="none" stroke="#ffffff" stroke-width="3" stroke-linecap="round"/></g></g></svg>