<svg version="1.1" xmlns="http://www.w3.org/2000/svg" xmlns:xlink="http://www.w3.org/1999/xlink" width="455.509" height="144.68108" viewBox="0,0,455.509,144.68108"><g transform="translate(-36.991,-91.79166)"><g data-paper-data="{&quot;isPaintingLayer&quot;:true}" fill-rule="nonzero" stroke-miterlimit="10" stroke-dasharray="" stroke-dashoffset="0" style="mix-blend-mode: normal"><g fill="#00dc0f" stroke="#ffffff" stroke-width="30" stroke-linecap="butt" stroke-linejoin="miter"><path d="M428.31189,203.81406c0.84567,3.79057 0.00995,6.67578 -1.04464,8.60589c-2.69618,5.14363 -7.65079,8.20794 -13.32172,8.20794c-1.08443,0 -2.21862,-0.10943 -3.44236,-0.34821h-4.44722c-1.16404,0 -3.3528,-0.06965 -8.80488,-0.67654c-3.23343,-0.36811 -5.9694,-0.54719 -8.11839,-0.54719h-5.41226c-0.13928,0.00995 -0.62679,0.03979 -1.79083,0.15919c-1.82066,0.18903 -3.20359,0.27857 -4.36763,0.27857c-3.38267,0 -6.40716,-0.69644 -8.98396,-2.05944c-0.16914,-0.08953 -0.32832,-0.18903 -0.49745,-0.27857c-1.73113,-1.04464 -5.76048,-4.1587 -5.76048,-10.70514c0,-3.5319 1.31327,-6.79517 3.69108,-9.19288c1.15409,-1.17398 2.48725,-2.12909 3.94975,-2.85537c-3.29313,-3.60155 -4.28802,-8.70539 -2.50715,-13.53066c0.69644,-1.84057 1.72117,-3.4523 3.03445,-4.81532c-5.9694,-2.0097 -8.84466,-7.05384 -9.0337,-11.92887c-0.50739,-3.75078 0.95511,-7.56126 3.98954,-9.99876c3.0046,-2.41761 6.62604,-3.83036 10.46637,-4.10894c0.24872,-0.00995 0.5074,-0.01989 0.76608,-0.01989h3.05434c6.5763,-0.1194 17.73909,-1.74108 33.17,-4.82527c1.9898,-0.44771 4.04924,-0.36811 6.23802,0.25867c1.01481,0.28852 3.31301,0.95511 5.37247,2.97476c0.43777,0.42781 0.82578,0.88546 1.18393,1.37297c1.37297,1.89031 2.31811,4.01941 2.81558,6.32756c0.20893,1.00485 0.27858,2.01965 0.20893,3.03446c-0.1194,1.88036 -0.04974,3.95969 0.20893,6.17833c0.32832,2.68623 -0.35817,5.40232 -1.91021,7.611c-2.37781,3.36276 -6.00919,5.49185 -10.18778,6.00921c0.00995,0.17908 0.01989,0.36811 0.01989,0.54719v0.84567c3.07425,0.28852 5.89977,1.59184 8.05869,3.74082c3.5518,3.57169 3.58164,7.98905 3.42245,10.26738c0.17908,1.19388 0.23876,1.96989 0.23876,2.73597c0,0.92525 -0.08953,1.94006 -0.28852,3.31301c-0.01989,0.14923 -0.0398,0.26863 -0.0597,0.38801v2.65639c0.02985,0.12934 0.05968,0.24873 0.08953,0.37807z"/><g><path d="M380.18254,197.11157c-0.62813,6.77479 -2.66505,11.91646 -6.20948,15.65829c-2.06384,2.1805 -5.12372,3.90336 -10.22052,5.73391c-0.09871,0.03589 -0.20638,0.07177 -0.31405,0.10767c-2.44071,0.78067 -5.10577,1.18447 -7.91439,1.18447c-4.28024,0 -8.25538,-0.84348 -11.81775,-2.50353c-5.26729,-2.45867 -7.88747,-5.89541 -9.18859,-8.79377c-0.18844,-0.31405 -0.38585,-0.6371 -0.57428,-0.98705c-0.53839,-0.97808 -0.91528,-2.03693 -1.09474,-3.14063c-0.26022,-1.54339 -0.67299,-3.86746 -1.2383,-6.95426c-0.10767,-0.59223 -0.16152,-1.18447 -0.16152,-1.78568v-7.80671c0,-0.96911 0.08075,-2.38688 0.66402,-6.22743c0.56531,-3.75979 0.80759,-4.9263 1.25626,-6.07488c1.17549,-3.13165 4.693,-12.33819 13.21757,-14.15976c2.79966,-0.59223 5.94926,-0.673 8.92838,-0.34995c2.10871,-3.38291 5.87747,-5.40188 10.1577,-5.40188c7.42984,0 11.53957,4.89939 12.31128,9.74493c0.08075,0.51147 0.11666,1.03192 0.11666,1.55237v12.46382c0,0.00898 0,0.01796 0,0.01796c0,0.00898 0,0.00897 0,0.01794c0,0 0,0 0,0.00898c0,0.81657 -0.10769,1.59724 -0.28715,2.35996c1.73184,1.96514 2.69197,4.38792 2.73683,6.98117c0.05383,2.60224 -0.07179,5.41983 -0.36791,8.35408z"/></g></g><path d="M428.31189,203.81406c0.84567,3.79057 0.00995,6.67578 -1.04464,8.60589c-2.69618,5.14363 -7.65079,8.20794 -13.32172,8.20794c-1.08443,0 -2.21862,-0.10943 -3.44236,-0.34821h-4.44722c-1.16404,0 -3.3528,-0.06965 -8.80488,-0.67654c-3.23343,-0.36811 -5.9694,-0.54719 -8.11839,-0.54719h-5.41226c-0.13928,0.00995 -0.62679,0.03979 -1.79083,0.15919c-1.82066,0.18903 -3.20359,0.27857 -4.36763,0.27857c-3.38267,0 -6.40716,-0.69644 -8.98396,-2.05944c-0.16914,-0.08953 -0.32832,-0.18903 -0.49745,-0.27857c-1.73113,-1.04464 -5.76048,-4.1587 -5.76048,-10.70514c0,-3.5319 1.31327,-6.79517 3.69108,-9.19288c1.15409,-1.17398 2.48725,-2.12909 3.94975,-2.85537c-3.29313,-3.60155 -4.28802,-8.70539 -2.50715,-13.53066c0.69644,-1.84057 1.72117,-3.4523 3.03445,-4.81532c-5.9694,-2.0097 -8.84466,-7.05384 -9.0337,-11.92887c-0.50739,-3.75078 0.95511,-7.56126 3.98954,-9.99876c3.0046,-2.41761 6.62604,-3.83036 10.46637,-4.10894c0.24872,-0.00995 0.5074,-0.01989 0.76608,-0.01989h3.05434c6.5763,-0.1194 17.73909,-1.74108 33.17,-4.82527c1.9898,-0.44771 4.04924,-0.36811 6.23802,0.25867c1.01481,0.28852 3.31301,0.95511 5.37247,2.97476c0.43777,0.42781 0.82578,0.88546 1.18393,1.37297c1.37297,1.89031 2.31811,4.01941 2.81558,6.32756c0.20893,1.00485 0.27858,2.01965 0.20893,3.03446c-0.1194,1.88036 -0.04974,3.95969 0.20893,6.17833c0.32832,2.68623 -0.35817,5.40232 -1.91021,7.611c-2.37781,3.36276 -6.00919,5.49185 -10.18778,6.00921c0.00995,0.17908 0.01989,0.36811 0.01989,0.54719v0.84567c3.07425,0.28852 5.89977,1.59184 8.05869,3.74082c3.5518,3.57169 3.58164,7.98905 3.42245,10.26738c0.17908,1.19388 0.23876,1.96989 0.23876,2.73597c0,0.92525 -0.08953,1.94006 -0.28852,3.31301c-0.01989,0.14923 -0.0398,0.26863 -0.0597,0.38801v2.65639c0.02985,0.12934 0.05968,0.24873 0.08953,0.37807z" fill="#00dc0f" stroke="none" stroke-width="1" stroke-linecap="butt" stroke-linejoin="miter"/><path d="M312.01296,233.72913c-3.65817,0.45727 -5.94448,0.45727 -6.85903,0.91454c-1.82908,0.91454 -5.9445,1.82907 -10.97446,1.82907c-6.40176,0 -12.34627,-2.28634 -17.37623,-5.9445h-3.65815c-1.37181,0 -2.28635,0 -3.65817,-0.45727c-5.02996,1.82907 -9.60265,1.82907 -12.34626,1.82907h-0.91454c-6.40176,0.45727 -12.80354,-0.91454 -18.29077,-3.65815c-2.74362,0.91454 -5.02996,1.37181 -7.77357,1.37181l-16.91896,0.45727c-7.77358,0 -14.63261,-2.74361 -20.11984,-7.77357c-2.28635,0 -4.57269,-0.45727 -6.40176,-0.91454c-2.74362,3.20088 -6.40177,5.9445 -10.97446,8.23085c-8.68811,4.11542 -18.29076,4.57269 -27.43614,0.91454c-0.91454,-0.45727 -2.28634,-0.91454 -3.20088,-1.37181l-10.51719,1.37181h-3.20089c-1.37181,0.45727 -2.28634,1.37181 -3.20088,1.82908c-6.85903,3.20088 -13.26081,3.20088 -16.00442,3.20088h-2.28634c-7.77357,0 -15.54715,-2.28634 -21.49165,-6.40176c-1.82907,0.45727 -4.11542,0.91454 -5.9445,0.91454c-4.11542,2.74361 -9.14538,4.57267 -14.63261,5.02994h-1.82908c-15.08988,0 -27.43615,-11.43173 -28.80795,-26.5216v-0.45727c0,-2.28634 -0.45727,-7.3163 0,-12.80353c0,-2.74361 0.45727,-6.85903 0.45727,-7.77357c0,-3.65815 0.91454,-7.3163 2.28634,-10.97446c-0.91454,-3.65815 -0.45727,-7.3163 0,-10.97446v-1.37181c0.45727,-3.20088 1.37181,-9.60265 4.57269,-16.00442c5.9445,-10.97446 16.91895,-17.83349 29.26522,-17.83349c4.11542,-2.28635 8.23085,-3.20089 12.80354,-3.20089h1.37181c9.14538,0.45727 17.37622,5.02996 22.40618,12.34626c4.11542,-3.65815 9.14538,-5.94448 14.63261,-6.85903c10.97446,-1.3718 20.11984,-1.82907 27.89341,-0.45727c4.11542,-3.65817 9.60265,-6.40176 15.08988,-6.85903l11.889,-1.82907h3.65815c6.85903,0 13.71807,2.74362 19.2053,7.3163h0.91454l17.37622,-0.45727c7.3163,0 13.71807,-0.45727 15.08988,-0.45727h2.28635c6.40176,0 13.2608,2.28635 18.29076,6.40177c5.02996,-3.65815 10.97446,-5.48723 17.37622,-5.48723h5.9445c4.57269,-2.74362 9.60265,-4.57269 15.08988,-4.57269l14.63261,-0.45727h0.45727c15.54715,0 28.35068,12.80353 28.80795,28.35068c0,7.3163 -2.28635,13.71807 -6.85903,19.2053v13.2608c4.11542,4.57269 6.40176,10.51719 6.85903,16.91896c0.91454,15.54715 -10.97446,28.80797 -26.97888,30.17976z" fill="#ffffff" stroke="none" stroke-width="1" stroke-linecap="butt" stroke-linejoin="miter"/><path d="M311.09842,217.26743c-5.9445,0.45727 -9.60265,0.91454 -10.51719,1.37181l-0.45727,0.45727c-1.37181,0.45727 -3.20088,1.3718 -5.48723,1.3718c-2.74362,0 -5.9445,-0.91454 -8.23084,-3.20088c-0.91454,-0.91454 -1.82908,-1.82907 -2.28635,-2.74361h-10.51719c-1.82908,0 -3.65815,-0.45727 -5.02994,-1.37181c-0.45727,0.45727 -1.37181,0.45727 -1.82908,0.91454c-3.65817,1.82907 -6.85903,1.82907 -9.14538,1.82907h-2.28635c-6.85903,0 -12.34626,-2.28634 -16.00442,-6.40176c-2.28635,2.28634 -5.48721,3.65815 -8.68811,3.65815l-16.91896,0.45727c-5.9445,0 -11.43172,-4.57269 -12.34626,-10.05992c-2.28635,1.3718 -4.57269,2.28634 -7.3163,2.28634c-2.74362,0 -5.48723,-0.91454 -7.77357,-2.28634c-0.45727,-0.45727 -0.91454,-0.91454 -1.37181,-0.91454c-1.37181,0.91454 -3.20088,0.91454 -5.02996,0.91454h-1.37181c-1.82908,5.48723 -5.02996,9.1454 -10.05992,11.43173c-2.28635,0.91454 -5.02996,1.82907 -7.3163,1.82907c-2.28635,0 -5.02996,-0.45727 -7.3163,-1.37181c-2.28635,-0.91454 -4.11542,-2.28634 -5.48723,-3.65815c-0.91454,0.45727 -1.82907,0.45727 -2.74361,0.91454l-13.2608,1.82907h-1.82908c-1.37181,0 -2.28635,0 -3.65815,-0.45727c-1.82908,1.82907 -4.11542,2.74361 -5.9445,3.65815c-3.65815,1.82907 -6.85904,1.82908 -9.14538,1.82908h-2.28634c-8.23084,0 -14.63261,-3.65815 -18.29076,-8.68813c-3.65815,2.28634 -8.23084,3.65815 -12.34627,3.65815h-2.74361c0,0.45727 -0.45727,0.45725 -0.45727,0.91452c-2.28634,2.28634 -5.48723,4.11544 -8.68811,4.11544h-0.91454c-6.40176,0 -11.88899,-5.02996 -12.34626,-11.889v-0.45727c0,-2.28634 -0.45727,-6.40177 0,-10.97446c0,-3.20088 0.45727,-8.23084 0.45727,-8.23084c0,-3.20088 1.37181,-5.9445 3.20089,-8.23084c-1.82907,-3.65815 -2.28635,-7.77357 -1.37181,-12.34627v-0.91454c0.45727,-2.74361 0.91454,-6.85903 2.74361,-10.97446c3.20088,-5.9445 9.14538,-9.14538 16.00442,-9.14538h3.20088c2.28634,-1.82907 5.02996,-3.20088 8.23085,-3.20088c6.85903,0 12.34627,5.9445 12.34627,12.80353v5.02996c2.28634,-0.91454 5.02996,-1.37181 7.77357,-1.37181c1.3718,0 2.28635,0 3.65815,0.45727c1.82907,-2.28634 4.57269,-3.65815 7.3163,-4.11542c0.45727,-0.91454 0.91454,-1.3718 1.37181,-2.28634c1.82907,-2.74361 5.02994,-4.57269 8.23084,-5.02996c2.74362,-0.45727 8.23085,-0.91454 14.63261,-0.91454c7.3163,0 13.2608,0.91454 17.83349,3.20089c1.37181,-5.02996 5.02996,-8.68811 10.51719,-9.60265l11.889,-1.82908h1.82907c3.65817,0 6.85903,1.37181 9.14538,4.11544c0.91454,0.91454 2.28635,2.74361 2.74362,4.11542l0.45727,1.37181c2.28635,-1.3718 4.57269,-2.28635 7.3163,-2.28635l17.83349,-0.45725c8.68811,0 16.46169,-0.45727 16.46169,-0.91454h0.91454c3.20089,0 6.85903,1.37181 9.14538,3.65815c1.82908,1.82907 3.20088,4.11542 3.65815,6.85904h0.91454c1.37181,0 2.28635,0 3.65817,0.45727c1.82908,-2.28634 4.57269,-3.65815 7.3163,-4.11542c2.28635,-3.20088 6.40176,-5.94448 10.97444,-5.94448h11.889c2.28635,-2.74361 5.48725,-4.57269 9.60267,-4.57269h14.63261c6.85903,0 12.34626,5.48723 12.80353,12.34627c0,5.02996 -2.74362,9.60267 -6.85903,11.43173v27.89341c3.65817,1.82907 6.40176,5.9445 6.85903,10.51719c0.45727,6.85903 -5.02996,12.80353 -11.889,13.2608z" fill="#f9a83a" stroke="none" stroke-width="1" stroke-linecap="butt" stroke-linejoin="miter"/><path d="M190.37939,177.48503l-9.14538,1.3718l3.20088,-16.46168z" fill="#f9a83a" stroke="none" stroke-width="1" stroke-linecap="butt" stroke-linejoin="miter"/><path d="M75.14758,178.39957c5.48723,0.91454 16.91895,2.74361 16.91895,14.17534c0,3.20088 -1.82907,6.85903 -4.57269,9.14538c-3.20088,2.74361 -7.3163,4.11544 -11.43173,3.20089c-3.20088,-0.45727 -5.9445,-1.82908 -7.77357,-3.20089v5.02996c0,1.3718 -1.37181,2.74361 -2.74362,2.74361c-1.3718,0 -2.74361,-1.37181 -2.74361,-2.74361c0,-0.45727 -0.45727,-4.57269 0,-10.05992c0.45727,-3.20088 0.45727,-8.68811 0.45727,-8.68811c0,-1.3718 1.37181,-2.74361 2.74361,-2.74361c1.3718,0 2.74362,1.37181 2.74362,2.74361v0.91452c0,1.3718 0.45727,3.65817 0.91454,5.48723c0.91454,1.82907 3.65815,3.20088 4.57269,3.65815c0.91454,0 1.37181,0.45727 2.28635,0.45727c2.74361,0.45727 5.48723,0 7.3163,-1.82907c1.82907,-1.3718 2.74361,-3.20089 2.74361,-5.02996c0,-4.57269 -5.02996,-5.9445 -12.34627,-7.3163c-6.85903,-1.3718 -9.60267,-6.85904 -8.68813,-15.54715v-0.91454c0.45727,-4.57269 1.37181,-12.34626 10.05992,-10.97446c3.20088,0 5.9445,2.28635 8.23085,4.57269v-5.02996c0,-1.3718 1.37181,-2.74361 2.74361,-2.74361c1.3718,0 2.74361,1.37181 2.74361,2.74361c0,0.45727 -0.91454,17.83349 -0.91454,17.83349c-0.45727,1.3718 -1.82908,2.74362 -3.20088,2.28635c-1.3718,-0.45727 -2.28634,-1.37181 -2.28634,-2.28635v-1.82907c-0.45727,-1.3718 -0.45727,-2.74362 -1.37181,-4.57269c-0.91454,-2.74361 -2.74361,-4.11542 -3.65815,-5.02996c-0.91454,-0.91454 -1.82907,-1.37181 -2.74361,-1.37181c-2.74361,0 -3.20088,1.37181 -4.11542,6.85904v0.91454c-0.91454,6.40176 0.91454,8.68813 4.11542,9.1454M151.13463,171.46016c1.37181,-1.82907 2.28635,-3.65815 2.28635,-4.57269v-0.91454c-1.37181,-2.28634 -7.77357,-2.74361 -15.08988,-2.74361v12.80353c3.46007,-0.57667 8.68811,-2.28634 8.68811,-2.28634c0.45727,0 1.82908,-0.45727 2.28635,-0.91454c0.91454,-0.45727 1.3718,-0.91452 1.82907,-1.3718M167.9732,195.31853c1.37181,0.45727 2.28635,1.82907 0.45727,2.74361c-0.91454,4.11542 -2.74361,5.48723 -5.02996,6.85904c-2.74362,1.3718 -5.02996,0.45727 -6.85903,0c-2.28635,-0.91454 -3.65815,-3.20089 -4.11542,-4.11544c-0.91454,-2.28634 -1.37181,-7.77357 -1.37181,-9.14538c-0.45727,-6.85903 -1.3718,-9.60265 -2.28634,-10.97446c-0.45727,-0.91454 -1.37181,-1.37181 -2.28635,-1.37181h-0.91454c-2.28635,0.91454 -4.57269,1.3718 -7.3163,1.82907v16.00442l4.11542,-0.45727c1.37181,-0.45727 3.20088,0.91454 3.20088,2.28634c0.45727,1.3718 -0.91454,3.20088 -2.28634,3.20088l-13.26081,1.82908c-1.37181,0.45727 -3.20088,-0.91454 -3.20088,-2.28635c-0.45727,-1.3718 0.91454,-3.20088 2.28634,-3.20088l3.65817,-0.45727v-16.00442h-1.37181c-1.37181,0 -2.74362,-1.37181 -2.74362,-2.74361c0,-1.3718 1.37181,-2.74361 2.74362,-2.74361h1.37181v-12.80353c-1.37181,0 -2.74362,0.45727 -4.11544,0.45727c-1.37181,0.45727 -3.20088,-0.91454 -3.20088,-2.28634c-0.45727,-1.3718 0.91454,-3.20088 2.28635,-3.20088c6.40176,-0.91454 26.06433,-3.20089 30.63702,4.57269c1.82908,3.20088 0.91454,6.85903 -2.28634,11.43173c0,0 -1.37181,1.37181 -2.74362,2.28635c2.28635,2.28634 4.11544,6.85903 4.11544,15.08988c0,2.28634 0.45725,5.94448 0.91452,6.85903c0.45727,0.45727 0.91454,1.37181 0.91454,1.37181c1.37181,0.45727 2.28635,0.91452 2.74362,0.45725c0.45727,-0.45727 1.37181,-0.45727 2.28635,-3.65815c0.45727,-1.3718 2.28634,-2.28634 3.65815,-1.82907M267.65786,186.63041c1.37181,0 2.74362,0.91454 2.74362,1.82908v4.57269c-0.45727,0.91454 -0.91454,4.11542 -1.82908,5.94448c-0.91454,1.3718 -1.37181,2.28634 -2.28635,3.20088c-1.37181,1.3718 -2.74361,2.28635 -4.11542,2.74362c-1.82908,0.91454 -3.65815,0.91452 -5.48723,0.91452h-1.37181c-10.05992,0 -13.2608,-8.23084 -13.71807,-12.34627v-12.80353c0.45727,-6.85903 2.74361,-10.97446 5.9445,-13.26081c4.11542,-2.74361 9.60267,-0.45727 10.97446,0.45727c1.37181,0.91454 2.74361,1.37181 3.65815,2.28635v-5.02996c0,-1.3718 1.37181,-2.74361 2.74362,-2.74361c1.37181,0 2.74361,1.37181 2.74361,2.74361v12.34627c0,1.3718 -0.45727,2.28634 -1.82907,2.74361c-1.37181,0 -2.74362,-0.45727 -3.20089,-1.37181c-0.45727,0 -2.74361,-4.11542 -6.40176,-5.48721c-3.20089,-0.91454 -5.02996,-1.37181 -6.40177,-0.45727c-1.82908,1.3718 -2.74362,4.57269 -3.20089,9.14538v11.889c0,1.3718 0.91454,7.3163 8.23085,6.85903h1.82908c1.82908,0 2.28634,0.00002 3.20088,-0.45725c0.91454,-0.45727 1.82908,-0.91454 2.28635,-1.37181c0.91454,-0.91454 1.37181,-1.3718 1.82908,-2.28634c0.45727,-0.45727 0.91454,-2.28635 0.91454,-3.65815v-3.65817c0,-1.3718 1.37181,-2.74361 2.74361,-2.74361M312.9275,204.92118c0,1.3718 -0.91454,2.74361 -2.28634,3.65815c-6.40176,0.45727 -11.889,0.91454 -13.2608,1.82908c-1.82908,0.45727 -3.20088,0.91454 -4.11542,0c-1.37181,-0.91454 -1.37181,-2.74361 -0.45727,-3.65815c1.37181,-1.82907 4.1154,-1.82907 7.77357,-2.74361v-21.03438l-16.46169,2.74362v14.17534h4.57269c1.37181,0 2.74362,1.37181 2.74362,2.74361c0,1.3718 -1.37181,2.74361 -2.74362,2.74361l-15.08988,-0.45727c-1.37181,0 -2.74361,-1.37181 -2.74361,-2.74362c0,-1.3718 1.3718,-2.74361 2.74361,-2.74361h4.57271v-37.03879h-4.57271c-1.37181,0 -2.74361,-1.37181 -2.74361,-2.74362c0,-1.3718 1.3718,-2.74361 2.74361,-2.74361h14.63261c1.37181,0 2.74362,1.37181 2.74362,2.74361c0,1.3718 -1.37181,2.74362 -2.74362,2.74362h-4.57269v17.37622l16.46169,-2.74361v-19.2053h-4.57269c-1.37181,0 -2.74362,-1.37181 -2.74362,-2.74362c0,-1.3718 1.37181,-2.74361 2.74362,-2.74361l14.63261,-0.45727c1.37181,0 2.74361,1.37181 2.74361,2.74362c0,1.3718 -1.3718,2.74361 -2.74361,2.74361h-4.11544c0.45727,31.0943 0.45727,40.69695 0.45727,45.26964c1.37181,-0.45727 2.74362,-0.45727 3.65817,-0.45727c1.37181,0 2.74361,1.37181 2.74361,2.74362" fill="#ffffff" stroke="none" stroke-width="1" stroke-linecap="butt" stroke-linejoin="miter"/><path d="M190.37939,177.48503l-5.94448,-15.08988l-3.20088,16.46168zM205.46927,183.42953c1.37181,-0.45727 2.74362,0.45727 3.20089,1.37181c0.45727,1.3718 -0.45727,3.20088 -1.82908,3.65815c-5.02996,1.82907 -10.05992,4.11542 -11.43173,5.9445c-0.91454,0.91454 -2.74362,1.37181 -4.11542,0.45727c-0.91454,-0.91454 -1.37181,-2.28635 -0.45727,-3.65815c1.37181,-1.3718 2.28635,-1.82908 4.57269,-3.20088l-2.74362,-6.85904l-12.80353,2.28635l-0.45727,4.11542c1.82908,0 2.74362,1.37181 2.74362,2.74361c0,1.82907 -1.37181,2.74362 -2.74362,2.74362l-13.71807,-0.45727c-1.82908,0 -2.74361,-1.37181 -2.74361,-2.74362c0,-1.82907 1.37181,-2.74361 2.74361,-2.74361l8.23085,0.45727c1.37181,-6.40176 5.48721,-26.97888 6.40176,-32.00884c-3.65817,0.45727 -8.23084,0.91454 -8.23084,0.91454c-1.82908,0.45727 -3.20089,-0.91454 -3.20089,-2.28635c-0.45727,-1.82907 0.91454,-3.20088 2.28635,-3.20088l11.88899,-1.37181c0.91454,0 1.82908,0.45727 2.28635,0.91454c0.45727,0 0.91454,0.91452 0.91454,1.3718l10.51719,25.1498l3.65815,8.68813c2.74362,-1.3718 4.11542,-1.82908 5.02996,-2.28635" fill="#ffffff" stroke="none" stroke-width="1" stroke-linecap="butt" stroke-linejoin="miter"/><path d="M238.39266,155.53609c0.91454,0 1.82908,0.45727 1.82908,1.37181c0.91454,0.91454 0.91454,1.3718 0.91454,2.28634c-0.45727,3.65815 -0.45727,10.05992 -0.45727,10.05992c0,0.91454 -0.45727,2.28634 -1.37181,2.74361c-1.37181,0.91454 -2.74361,0.45727 -3.65815,-0.91452c0,-0.45727 -0.45727,-1.37181 -0.45727,-4.11544v-5.48723c-2.74362,0 -6.85903,0.45727 -11.43172,0.45727v36.12426h5.48723c1.37181,0 2.74361,1.37181 2.74361,2.74361c0,1.3718 -1.37181,2.74362 -2.74361,2.74362l-16.91896,0.45727c-1.37181,0 -2.74361,-1.37181 -2.74361,-2.74362c0,-1.3718 1.3718,-2.74361 2.74361,-2.74361h5.9445v-36.12425h-11.889c0.91454,3.65815 1.82908,10.97446 1.82908,10.97446c0,1.3718 -0.91454,2.74361 -2.28635,2.74361c-1.37181,0.45727 -3.20088,-0.91456 -3.20088,-2.28635l-2.28635,-13.71807c-0.45727,-0.91454 0,-1.82907 0.45727,-2.28634c0.91454,-0.45727 1.37181,-0.91454 2.28635,-0.91454l17.83349,-0.45727c9.14538,-0.45727 17.37623,-0.91454 17.37623,-0.91454M121.78903,189.37401c1.37181,0 2.74362,1.37181 2.74362,2.28635v4.57269c-0.45727,0.91454 -0.91454,4.11542 -1.82908,5.9445c-0.91454,1.3718 -1.37181,2.28634 -2.28635,3.20088c-1.3718,1.3718 -2.74361,2.28634 -4.11542,2.74361c-1.82907,0.91454 -3.65815,0.91454 -5.48723,0.91454h-1.37181c-10.51719,0 -13.71807,-8.23084 -14.17534,-12.34626v-12.80354c0.45727,-6.85903 2.74361,-10.97446 5.9445,-13.2608c4.57269,-2.28634 9.60265,-0.45727 11.43173,0.45727c1.3718,0.45727 2.74361,1.3718 3.65815,2.28634v-5.02996c0,-1.3718 1.37181,-2.74361 2.74361,-2.74361c1.3718,0 2.74361,1.37181 2.74361,2.74361v12.34627c0,1.3718 -0.45727,2.28634 -1.82907,2.74361c-1.3718,0 -2.74361,-0.45727 -3.20088,-1.37181c0,0 -2.74361,-4.11542 -6.40176,-5.48723c-3.20088,-0.91454 -5.02996,-1.37181 -6.40176,-0.45727c-1.82907,1.3718 -2.74362,4.57269 -3.20089,9.14538v11.88899c0,1.3718 0.91454,6.85904 8.23084,6.85904h1.82908c1.82907,0 2.28634,0 3.20088,-0.45727c0.91454,-0.45727 1.82908,-0.91454 2.28635,-1.37181c0.91454,-0.91454 1.37181,-1.3718 1.82908,-2.28634c0.45727,-0.91454 0.91452,-2.74361 0.91452,-3.65815v-4.11542c0,-1.3718 1.37181,-2.74362 2.74361,-2.74362" fill="#ffffff" stroke="none" stroke-width="1" stroke-linecap="butt" stroke-linejoin="miter"/><g stroke="none" stroke-width="1" stroke-linecap="butt" stroke-linejoin="miter"><path d="M380.18254,197.11157c-0.62813,6.77479 -2.66505,11.91646 -6.20948,15.65829c-2.06384,2.1805 -5.12372,3.90336 -10.22052,5.73391c-0.09871,0.03589 -0.20638,0.07177 -0.31405,0.10767c-2.44071,0.78067 -5.10577,1.18447 -7.91439,1.18447c-4.28024,0 -8.25538,-0.84348 -11.81775,-2.50353c-5.26729,-2.45867 -7.88747,-5.89541 -9.18859,-8.79377c-0.18844,-0.31405 -0.38585,-0.6371 -0.57428,-0.98705c-0.53839,-0.97808 -0.91528,-2.03693 -1.09474,-3.14063c-0.26022,-1.54339 -0.67299,-3.86746 -1.2383,-6.95426c-0.10767,-0.59223 -0.16152,-1.18447 -0.16152,-1.78568v-7.80671c0,-0.96911 0.08075,-2.38688 0.66402,-6.22743c0.56531,-3.75979 0.80759,-4.9263 1.25626,-6.07488c1.17549,-3.13165 4.693,-12.33819 13.21757,-14.15976c2.79966,-0.59223 5.94926,-0.673 8.92838,-0.34995c2.10871,-3.38291 5.87747,-5.40188 10.1577,-5.40188c7.42984,0 11.53957,4.89939 12.31128,9.74493c0.08075,0.51147 0.11666,1.03192 0.11666,1.55237v12.46382c0,0.00898 0,0.01796 0,0.01796c0,0.00898 0,0.00897 0,0.01794c0,0 0,0 0,0.00898c0,0.81657 -0.10769,1.59724 -0.28715,2.35996c1.73184,1.96514 2.69197,4.38792 2.73683,6.98117c0.05383,2.60224 -0.07179,5.41983 -0.36791,8.35408z" fill="#00dc0f"/><path d="M368.22936,189.7138c1.39587,0 2.79174,1.39587 2.79174,2.32646v4.6529c-0.4653,0.93059 -0.93059,4.1876 -1.86117,6.04878c-0.93059,1.39585 -1.39587,2.32643 -2.32646,3.25702c-1.39586,1.39586 -2.79173,2.32643 -4.1876,2.79173c-1.86116,0.93059 -3.72232,0.93059 -5.58349,0.93059h-1.39587c-10.70168,0 -13.9587,-8.37522 -14.424,-12.56283v-13.02814c0.46529,-6.97935 2.79173,-11.16697 6.04878,-13.49341c4.6529,-2.32643 9.77108,-0.46529 11.63225,0.4653c1.39586,0.4653 2.79173,1.39586 3.72232,2.32645v-5.11819c0,-1.39586 1.39587,-2.79173 2.79173,-2.79173c1.39586,0 2.79173,1.39587 2.79173,2.79173v12.56285c0,1.39586 -0.46529,2.32643 -1.86115,2.79173c-1.39586,0 -2.79173,-0.46529 -3.25703,-1.39587c0,0 -2.79173,-4.18762 -6.51405,-5.58349c-3.25702,-0.93059 -5.11819,-1.39588 -6.51405,-0.4653c-1.86115,1.39586 -2.79173,4.6529 -3.25703,9.30581v12.09753c0,1.39586 0.93057,6.97936 8.37521,6.97936h1.86117c1.86116,0 2.32645,0.00001 3.25703,-0.46529c0.93059,-0.46529 1.86116,-0.93057 2.32646,-1.39587c0.93059,-0.93059 1.39587,-1.39586 1.86117,-2.32645c0.46529,-0.93059 0.93056,-2.79173 0.93056,-3.72232v-4.1876c0,-1.39586 1.39587,-2.79176 2.79173,-2.79176z" fill="#ffffff"/></g><path d="M418.06741,166.62863c-0.69942,0.99291 -1.77988,1.48837 -3.23742,1.48837c-0.7591,0 -1.43066,-0.14525 -2.01268,-0.43775c-0.05871,-1.57494 -0.20495,-3.90797 -0.43676,-7.00111c-4.95958,0.93421 -12.86506,2.30518 -23.71545,4.11391c-0.52531,0.05871 -0.96306,0.20496 -1.31327,0.43676c0.2915,5.36848 0.43775,10.61956 0.43775,15.75226c0.59098,0.11741 2.45442,-0.14525 5.58936,-0.78796c1.53811,-0.23182 3.90598,-0.78697 7.09961,-1.66248c0.05771,-0.93321 -0.0587,-2.49421 -0.3502,-4.682c-0.2925,-2.18779 -0.40891,-3.8065 -0.35021,-4.85711c0,-1.10732 0.75713,-1.66248 2.27534,-1.66248c1.75002,0 2.68224,0.72925 2.79965,2.18779c0.23182,2.21764 0.58203,5.54261 1.05062,9.97588v13.56448c0.17511,0.23379 0.29051,0.40891 0.3502,0.52432c-0.17511,0.70042 -0.67155,1.29934 -1.48737,1.79481c-0.81781,0.49645 -1.63462,0.74319 -2.45044,0.74319c-1.05062,0 -1.75102,-0.46561 -2.10025,-1.39982c0.1164,-0.58203 0.20394,-1.48738 0.26265,-2.7131v-8.05073c-3.70202,0.11741 -7.87265,0.87452 -12.51386,2.27434c0,1.05062 -0.02985,3.73487 -0.08756,8.05173c-0.0597,3.55877 -0.0597,5.98135 0,7.26377c0,0.2925 0.23182,0.81781 0.70042,1.57492c1.22471,0.0597 3.12001,0.1751 5.68784,0.3512c2.97575,0.2925 5.9505,0.58302 8.92625,0.87452c3.55776,0.40891 6.53351,0.55615 8.92724,0.43777c0.05771,-0.75811 0.20296,-1.95498 0.43676,-3.58761v-5.16354c-0.3502,-0.58203 -0.52531,-1.13816 -0.52531,-1.66248c0,-0.8755 0.36415,-1.61871 1.0944,-2.23157c0.72826,-0.61186 1.53215,-0.91929 2.40667,-0.91929c0.70042,0 1.25456,0.20595 1.66347,0.61286c0.23182,0.23379 0.29051,0.99291 0.17511,2.27534c-0.0597,0.2925 -0.02985,0.80289 0.08754,1.53115c0.1164,0.73026 0.1751,1.21179 0.1751,1.4436c0,0.3512 -0.0587,0.91929 -0.1751,1.70725c-0.11741,0.78697 -0.17511,1.21179 -0.17511,1.2685v5.25009c0,0.0597 0.11541,0.35021 0.35021,0.87552c0.1164,0.52432 0.1164,0.87452 0,1.05062c-0.8188,1.63462 -2.04751,2.45043 -3.68213,2.45043c-0.40989,0 -0.90636,-0.05769 -1.49135,-0.1751c-0.58599,-0.1164 -0.9352,-0.17511 -1.05261,-0.17511h-5.34859c-1.4028,0 -3.93085,-0.20394 -7.58512,-0.61285c-3.65328,-0.40691 -6.76732,-0.61186 -9.33815,-0.61186h-5.52369c-0.4686,0 -1.40282,0.07362 -2.80562,0.21888c-1.4028,0.14525 -2.48526,0.21888 -3.24537,0.21888c-1.57792,0 -2.86531,-0.26265 -3.85723,-0.78796c-0.2925,-0.17511 -0.43875,-0.61185 -0.43875,-1.31227c0,-0.64171 0.17411,-1.13817 0.52034,-1.48738c0.75115,-0.75811 1.79182,-1.19488 3.12199,-1.31228c0.86655,0 1.76197,0 2.68822,0c0.63475,0.11741 1.5013,0.05871 2.60068,-0.1751c0.34722,-0.1761 0.55017,-0.58302 0.60689,-1.22473c0.05771,-0.4079 0.05771,-1.01977 0,-1.83858c-0.05771,-0.93321 -0.08655,-1.45753 -0.08655,-1.57494c0,-6.0679 -0.02786,-9.53911 -0.08655,-10.41462c-1.03171,-0.11541 -2.46635,-0.49447 -4.30095,-1.13817c-0.80885,-0.64171 -1.01083,-1.51623 -0.60092,-2.62554c0.3502,-0.93321 1.13817,-1.60378 2.3629,-2.01269c0.87452,-0.29051 1.75004,-0.55416 2.62555,-0.78696c0.17511,-0.64171 0.20296,-1.42967 0.08754,-2.36289c-0.11741,-0.81582 -0.20495,-1.60378 -0.26265,-2.3629c-0.11741,-2.50815 -0.32135,-6.35842 -0.61285,-11.55179c-0.23379,0 -1.02077,0.07362 -2.3629,0.21987c-1.34311,0.14525 -2.39273,0.21888 -3.14985,0.21888c-2.68424,0 -4.02637,-0.80289 -4.02637,-2.40965c0,-0.22784 0.02885,-0.48651 0.08756,-0.77404c-0.05871,-0.11441 -0.11541,-0.17212 -0.1751,-0.17212c1.28242,-1.03071 2.74194,-1.60477 4.37557,-1.72019c1.05062,0 2.09924,0 3.14985,0c7.29263,-0.1164 19.10707,-1.80773 35.44235,-5.07598c0.17511,-0.05871 0.4666,-0.02885 0.8755,0.08754c0.40691,0.11741 0.64171,0.20495 0.69942,0.26265c0.4666,0.64271 0.78796,1.37098 0.96306,2.18779c-0.1761,2.56785 -0.08854,5.3078 0.26066,8.22484z" fill="#ffffff" stroke="#ffffff" stroke-width="0.5" stroke-linecap="butt" stroke-linejoin="miter"/><path d="M385.45833,102.20833v-10.41667h2.08333v10.41667z" fill="none" stroke="none" stroke-width="NaN" stroke-linecap="butt" stroke-linejoin="miter"/><path d="M419.5,211v-85h73v85z" fill="none" stroke="none" stroke-width="0" stroke-linecap="butt" stroke-linejoin="miter"/><path d="M454.66111,156.085l-57.04321,-13.53461l5.85359,-24.67063l57.04321,13.53461z" fill="#ff5300" stroke="#ff5300" stroke-width="15" stroke-linecap="round" stroke-linejoin="round"/><path d="M406.63663,121.74377l6.95977,1.64009c1.38099,0.32543 2.39383,0.62581 3.03851,0.90113c0.65199,0.27704 1.20163,0.66108 1.64894,1.15212c0.44903,0.48373 0.77745,1.07016 0.98526,1.75928c0.21512,0.69084 0.234,1.41256 0.05665,2.16517c-0.19113,0.81106 -0.58683,1.50836 -1.18709,2.09189c-0.59854,0.57622 -1.31372,0.94372 -2.14553,1.10248c0.98545,0.56386 1.67533,1.2856 2.06963,2.16521c0.39602,0.8723 0.47523,1.81262 0.23761,2.82096c-0.18596,0.78914 -0.55029,1.51697 -1.09299,2.18348c-0.54097,0.6592 -1.18548,1.1359 -1.93351,1.4301c-0.74073,0.29591 -1.58713,0.38568 -2.53921,0.2693c-0.60735,-0.07371 -2.0307,-0.36671 -4.27003,-0.87898l-5.9295,-1.3973zM409.47043,125.47732l-0.94789,4.02242l2.30166,0.54239c1.36638,0.32199 2.22279,0.50067 2.56924,0.53603c0.61466,0.07543 1.13416,-0.0181 1.55851,-0.28059c0.43338,-0.26808 0.71636,-0.68343 0.84894,-1.24606c0.1257,-0.5334 0.07836,-1.00346 -0.14202,-1.41017c-0.22038,-0.40671 -0.61422,-0.71548 -1.18155,-0.92629c-0.34212,-0.11919 -1.33885,-0.37335 -2.9902,-0.76249zM407.84067,132.39325l-1.09511,4.64715l3.2552,0.76709c1.26409,0.29788 2.07558,0.45441 2.4345,0.46958c0.54117,0.02727 1.01921,-0.10303 1.43411,-0.39089c0.41662,-0.29516 0.69725,-0.74963 0.84189,-1.36341c0.12397,-0.52609 0.10114,-1.00194 -0.06851,-1.42755c-0.16234,-0.42389 -0.46569,-0.77303 -0.91006,-1.04742c-0.43534,-0.27998 -1.45311,-0.60851 -3.05331,-0.9856zM428.30289,140.98668l3.18924,1.34157c-0.71135,1.12038 -1.60226,1.88993 -2.67272,2.30867c-1.07047,0.41874 -2.29985,0.46453 -3.68815,0.13737c-2.19205,-0.51656 -3.64543,-1.61489 -4.36013,-3.29498c-0.56265,-1.34347 -0.63821,-2.88837 -0.22668,-4.63471c0.49246,-2.08976 1.42251,-3.59821 2.79018,-4.52536c1.37497,-0.92543 2.89909,-1.19099 4.57236,-0.79668c1.87055,0.4408 3.20018,1.4097 3.98887,2.9067c0.79772,1.49141 0.87334,3.51065 0.22684,6.05772l-8.36268,-1.97068c-0.20323,0.99331 -0.11453,1.82789 0.26609,2.50374c0.38234,0.66854 0.95712,1.09322 1.72434,1.27401c0.52609,0.12397 0.99808,0.0848 1.41596,-0.11751c0.42519,-0.2006 0.80402,-0.59722 1.13649,-1.18987zM429.29568,137.65741c0.19806,-0.97139 0.11816,-1.76148 -0.2397,-2.37027c-0.35614,-0.61609 -0.87397,-1.00421 -1.55351,-1.16434c-0.72338,-0.17047 -1.38452,-0.04861 -1.98345,0.36556c-0.60064,0.42148 -1.00406,1.0861 -1.21027,1.99387zM442.33529,135.22342l-0.62504,2.65238l-2.27974,-0.53722l-1.19842,5.08556c-0.24278,1.03026 -0.36206,1.63459 -0.35782,1.81298c0.00424,0.17839 0.0693,0.34412 0.1952,0.49719c0.12762,0.14576 0.30103,0.24447 0.52023,0.29613c0.30689,0.07232 0.78209,0.06861 1.4256,-0.01112l-0.32716,2.66474c-0.85932,0.14457 -1.77853,0.10149 -2.75765,-0.12925c-0.59916,-0.14119 -1.11662,-0.36725 -1.55238,-0.67818c-0.43404,-0.31823 -0.72644,-0.66479 -0.87718,-1.03967c-0.15075,-0.37488 -0.2054,-0.84666 -0.16394,-1.41533c0.01819,-0.40448 0.1659,-1.19492 0.44312,-2.37132l1.29657,-5.50205l-1.52348,-0.35901l0.62504,-2.65238l1.52348,0.35901l0.59146,-2.5099l3.811,-1.14963l-1.04862,4.44987zM446.23602,140.20333l-2.90685,-1.26345c0.63098,-1.13932 1.42817,-1.90396 2.3916,-2.29394c0.97073,-0.38825 2.27811,-0.38867 3.92215,-0.00125c1.48329,0.34954 2.54895,0.78577 3.19699,1.30868c0.64803,0.52292 1.05362,1.09282 1.21675,1.70971c0.17216,0.6113 0.08778,1.64033 -0.25315,3.08709l-0.94978,3.88315c-0.26173,1.11064 -0.40343,1.94106 -0.42511,2.49126c-0.01437,0.55192 0.05398,1.1619 0.20506,1.82994l-3.29904,-0.77743c-0.03603,-0.23987 -0.06449,-0.59364 -0.08539,-1.06133c-0.01197,-0.21106 -0.02116,-0.35205 -0.02758,-0.42298c-0.7008,0.42101 -1.40906,0.69373 -2.1248,0.81814c-0.71574,0.12441 -1.4426,0.09967 -2.1806,-0.07424c-1.29331,-0.30477 -2.23362,-0.89656 -2.82092,-1.77537c-0.57828,-0.88439 -0.74086,-1.86365 -0.48774,-2.93775c0.16874,-0.71607 0.48661,-1.31216 0.95358,-1.78828c0.47428,-0.47439 1.05275,-0.78541 1.7354,-0.93304c0.68437,-0.15494 1.63049,-0.20964 2.83835,-0.1641c1.63254,0.07621 2.77852,0.05704 3.43795,-0.05751l0.07748,-0.32881c0.15152,-0.643 0.09839,-1.13756 -0.1594,-1.48368c-0.25048,-0.34439 -0.81414,-0.6199 -1.69096,-0.82653c-0.59185,-0.13947 -1.08339,-0.1319 -1.4746,0.02271c-0.38391,0.15634 -0.74703,0.50267 -1.08937,1.039zM450.05889,143.96172c-0.46382,0.03724 -1.18296,0.04516 -2.15742,0.02377c-0.96715,-0.01967 -1.6156,0.0319 -1.94533,0.15473c-0.51245,0.21088 -0.82464,0.55379 -0.93656,1.02874c-0.10848,0.46033 -0.02782,0.90353 0.24198,1.3296c0.2698,0.42607 0.6714,0.70196 1.2048,0.82765c0.60647,0.14292 1.22741,0.07714 1.86282,-0.19731c0.47978,-0.20316 0.83257,-0.50565 1.05838,-0.90748c0.15484,-0.2643 0.32696,-0.79833 0.51636,-1.60209z" fill="#ffffff" stroke="none" stroke-width="1" stroke-linecap="square" stroke-linejoin="miter"/></g></g></svg>